HIERARCHY
ROOT Hips
{
	OFFSET 0.000000 91.384300 0.000000
	CHANNELS 6 Xposition Yposition Zposition Xrotation Yrotation Zrotation
	JOINT LeftUpLeg
	{
		OFFSET 9.077000 -4.133000 1.997000
		CHANNELS 3 Xrotation Yrotation Zrotation
		JOINT LeftLeg
		{
			OFFSET -0.837700 -38.099998 -0.644600
			CHANNELS 3 Xrotation Yrotation Zrotation
			JOINT LeftFoot
			{
				OFFSET -2.286000 -39.700100 -5.944000
				CHANNELS 3 Xrotation Yrotation Zrotation
				JOINT LeftToeBase
				{
					OFFSET 0.765600 -9.713000 12.380000
					CHANNELS 3 Xrotation Yrotation Zrotation
					End Site
					{
						OFFSET 0 0 0
					}
				}
			}
		}
	}
	JOINT RightUpLeg
	{
		OFFSET -9.077000 -4.133000 1.997000
		CHANNELS 3 Xrotation Yrotation Zrotation
		JOINT RightLeg
		{
			OFFSET 0.838700 -38.100201 -0.635000
			CHANNELS 3 Xrotation Yrotation Zrotation
			JOINT RightFoot
			{
				OFFSET 2.286000 -39.700001 -5.944000
				CHANNELS 3 Xrotation Yrotation Zrotation
				JOINT RightToeBase
				{
					OFFSET -0.765600 -9.713000 12.380000
					CHANNELS 3 Xrotation Yrotation Zrotation
					End Site
					{
						OFFSET 0 0 0
					}
				}
			}
		}
	}
	JOINT Spine
	{
		OFFSET 0.000000 4.991000 -1.131000
		CHANNELS 3 Xrotation Yrotation Zrotation
		JOINT Spine1
		{
			OFFSET 0.000000 5.519000 1.053000
			CHANNELS 3 Xrotation Yrotation Zrotation
			JOINT Spine2
			{
				OFFSET 0.000000 5.886000 0.113000
				CHANNELS 3 Xrotation Yrotation Zrotation
				JOINT Spine3
				{
					OFFSET 0.000000 6.393000 -0.435800
					CHANNELS 3 Xrotation Yrotation Zrotation
					JOINT Spine4
					{
						OFFSET 0.000000 7.474000 -1.480000
						CHANNELS 3 Xrotation Yrotation Zrotation
						JOINT Spine5
						{
							OFFSET 0.000000 9.333000 -0.898600
							CHANNELS 3 Xrotation Yrotation Zrotation
							JOINT Spine6
							{
								OFFSET 0.000000 10.370000 1.550000
								CHANNELS 3 Xrotation Yrotation Zrotation
								JOINT LeftShoulder
								{
									OFFSET 1.212000 -7.475000 7.403000
									CHANNELS 3 Xrotation Yrotation Zrotation
									JOINT LeftArm
									{
										OFFSET 12.730000 3.193000 -3.212000
										CHANNELS 3 Xrotation Yrotation Zrotation
										JOINT LeftForeArm
										{
											OFFSET 28.700001 0.058700 0.134700
											CHANNELS 3 Xrotation Yrotation Zrotation
											JOINT LeftHand
											{
												OFFSET 23.809999 0.048800 0.111700
												CHANNELS 3 Xrotation Yrotation Zrotation
												JOINT LeftHandThumb1
												{
													OFFSET 0.342600 -0.877100 1.299200
													CHANNELS 3 Xrotation Yrotation Zrotation
													JOINT LeftHandThumb2
													{
														OFFSET 3.552400 0.035400 4.233400
														CHANNELS 3 Xrotation Yrotation Zrotation
														JOINT LeftHandThumb3
														{
															OFFSET 2.296600 0.022900 2.736900
															CHANNELS 3 Xrotation Yrotation Zrotation
															End Site
															{
																OFFSET 0 0 0
															}
														}
													}
												}
												JOINT LeftHandIndex1
												{
													OFFSET 8.341500 -0.231800 2.230700
													CHANNELS 3 Xrotation Yrotation Zrotation
													JOINT LeftHandIndex2
													{
														OFFSET 4.365700 0.000000 0.000000
														CHANNELS 3 Xrotation Yrotation Zrotation
														JOINT LeftHandIndex3
														{
															OFFSET 2.594000 0.000000 0.000000
															CHANNELS 3 Xrotation Yrotation Zrotation
															End Site
															{
																OFFSET 0 0 0
															}
														}
													}
												}
												JOINT LeftHandMiddle1
												{
													OFFSET 8.432300 0.000000 0.000000
													CHANNELS 3 Xrotation Yrotation Zrotation
													JOINT LeftHandMiddle2
													{
														OFFSET 4.555200 0.000000 0.000000
														CHANNELS 3 Xrotation Yrotation Zrotation
														JOINT LeftHandMiddle3
														{
															OFFSET 2.865300 0.000000 0.000000
															CHANNELS 3 Xrotation Yrotation Zrotation
															End Site
															{
																OFFSET 0 0 0
															}
														}
													}
												}
												JOINT LeftHandRing1
												{
													OFFSET 7.689400 -0.454700 -1.530700
													CHANNELS 3 Xrotation Yrotation Zrotation
													JOINT LeftHandRing2
													{
														OFFSET 4.269500 0.000000 0.000000
														CHANNELS 3 Xrotation Yrotation Zrotation
														JOINT LeftHandRing3
														{
															OFFSET 2.807300 0.000000 0.000000
															CHANNELS 3 Xrotation Yrotation Zrotation
															End Site
															{
																OFFSET 0 0 0
															}
														}
													}
												}
												JOINT LeftHandPinky1
												{
													OFFSET 6.579800 -1.192300 -2.874700
													CHANNELS 3 Xrotation Yrotation Zrotation
													JOINT LeftHandPinky2
													{
														OFFSET 3.404900 0.000000 0.000000
														CHANNELS 3 Xrotation Yrotation Zrotation
														JOINT LeftHandPinky3
														{
															OFFSET 2.167000 0.000000 0.000000
															CHANNELS 3 Xrotation Yrotation Zrotation
															End Site
															{
																OFFSET 0 0 0
															}
														}
													}
												}
											}
										}
									}
								}
								JOINT RightShoulder
								{
									OFFSET -1.212000 -7.475000 7.403000
									CHANNELS 3 Xrotation Yrotation Zrotation
									JOINT RightArm
									{
										OFFSET -12.730000 3.193000 -3.212000
										CHANNELS 3 Xrotation Yrotation Zrotation
										JOINT RightForeArm
										{
											OFFSET -28.700001 0.058900 0.134800
											CHANNELS 3 Xrotation Yrotation Zrotation
											JOINT RightHand
											{
												OFFSET -23.809999 0.048800 0.111800
												CHANNELS 3 Xrotation Yrotation Zrotation
												JOINT RightHandThumb1
												{
													OFFSET -0.331700 -0.854900 1.465200
													CHANNELS 3 Xrotation Yrotation Zrotation
													JOINT RightHandThumb2
													{
														OFFSET -3.394400 0.033800 4.045100
														CHANNELS 3 Xrotation Yrotation Zrotation
														JOINT RightHandThumb3
														{
															OFFSET -2.228600 0.022200 2.655900
															CHANNELS 3 Xrotation Yrotation Zrotation
															End Site
															{
																OFFSET 0 0 0
															}
														}
													}
												}
												JOINT RightHandIndex1
												{
													OFFSET -8.067200 -0.148300 2.256000
													CHANNELS 3 Xrotation Yrotation Zrotation
													JOINT RightHandIndex2
													{
														OFFSET -4.244400 0.000000 0.000000
														CHANNELS 3 Xrotation Yrotation Zrotation
														JOINT RightHandIndex3
														{
															OFFSET -2.518100 0.000000 0.000000
															CHANNELS 3 Xrotation Yrotation Zrotation
															End Site
															{
																OFFSET 0 0 0
															}
														}
													}
												}
												JOINT RightHandMiddle1
												{
													OFFSET -8.141100 0.000000 0.000000
													CHANNELS 3 Xrotation Yrotation Zrotation
													JOINT RightHandMiddle2
													{
														OFFSET -4.416900 0.000000 0.000000
														CHANNELS 3 Xrotation Yrotation Zrotation
														JOINT RightHandMiddle3
														{
															OFFSET -2.814700 0.000000 0.000000
															CHANNELS 3 Xrotation Yrotation Zrotation
															End Site
															{
																OFFSET 0 0 0
															}
														}
													}
												}
												JOINT RightHandRing1
												{
													OFFSET -7.423600 -0.524800 -1.560900
													CHANNELS 3 Xrotation Yrotation Zrotation
													JOINT RightHandRing2
													{
														OFFSET -4.128000 0.000000 0.000000
														CHANNELS 3 Xrotation Yrotation Zrotation
														JOINT RightHandRing3
														{
															OFFSET -2.724700 0.000000 0.000000
															CHANNELS 3 Xrotation Yrotation Zrotation
															End Site
															{
																OFFSET 0 0 0
															}
														}
													}
												}
												JOINT RightHandPinky1
												{
													OFFSET -6.307900 -1.287900 -2.847400
													CHANNELS 3 Xrotation Yrotation Zrotation
													JOINT RightHandPinky2
													{
														OFFSET -3.314800 0.000000 0.000000
														CHANNELS 3 Xrotation Yrotation Zrotation
														JOINT RightHandPinky3
														{
															OFFSET -2.102600 0.000000 0.000000
															CHANNELS 3 Xrotation Yrotation Zrotation
															End Site
															{
																OFFSET 0 0 0
															}
														}
													}
												}
											}
										}
									}
								}
								JOINT Neck
								{
									OFFSET 0.000000 4.703000 0.702900
									CHANNELS 3 Xrotation Yrotation Zrotation
									JOINT Neck1
									{
										OFFSET 0.000000 4.737000 0.414500
										CHANNELS 3 Xrotation Yrotation Zrotation
										JOINT Head
										{
											OFFSET 0.000000 4.747000 0.751800
											CHANNELS 3 Xrotation Yrotation Zrotation
											End Site
											{
												OFFSET 0 0 0
											}
										}
									}
								}
							}
						}
					}
				}
			}
		}
	}
}
MOTION
Frames: 5
Frame Time: 1.00000000
16.922754 93.687904 162.503189 -2.663393 8.359095 0.402127 0.126612 -8.673527 -0.591102 3.597933 -0.203635 -0.021688 -6.544579 -6.458732 16.044678 0.000000 -0.000000 0.000000 0.263634 -8.430182 -0.754612 2.068555 0.116681 0.013044 -4.356591 23.435343 -15.606216 0.000000 0.000000 0.000000 2.209232 -0.463931 -0.661408 0.151768 -0.215924 0.436111 0.152723 -0.213150 0.437050 0.153684 -0.210377 0.437959 0.154970 -0.207545 0.439224 0.155935 -0.204717 0.440214 0.157824 -0.201900 0.441163 0.852407 0.840483 2.582851 4.033224 -5.403442 -77.098366 1.768882 -24.707243 0.830666 -0.014299 0.313157 7.652899 14.349438 24.790108 -38.571957 -0.153388 7.398589 0.013402 -0.130530 11.230762 -0.060876 3.810468 5.348714 -35.790520 1.573980 2.920269 -51.736050 0.406678 1.560349 -24.509029 2.131399 3.341692 -34.236336 -0.247007 -0.221015 -41.317558 -0.114104 -0.128986 -24.061466 -10.459661 14.201019 -30.316086 0.545870 3.666455 -43.649860 -0.107147 1.524051 -17.485094 -20.102081 19.822414 -15.659013 -0.491483 3.864466 -34.158127 -0.589213 2.715162 -24.196444 3.600376 0.350581 -2.122665 7.133758 16.724199 70.036209 -12.740556 21.326530 4.528030 -1.446976 -4.599967 -17.575584 7.141393 -26.499086 35.965729 -4.944392 -4.024549 -4.480954 0.123952 -9.945634 0.072697 1.979696 -1.337539 32.533962 0.191647 0.192138 40.465515 0.091975 0.068161 17.631697 1.161800 -1.229041 35.714424 0.048447 0.251350 33.773834 0.030042 0.181480 21.585852 -8.617563 -9.999010 33.015694 0.117159 -0.180152 35.491085 0.022275 -0.086433 16.505882 -14.343778 -22.537466 23.487051 -0.007645 0.206478 29.962877 -0.003126 0.152659 21.043955 2.317878 -0.245134 0.709116 2.317877 -0.245134 0.709134 7.921923 -1.839196 -5.982929 
16.988602 93.682846 162.343735 -2.683645 8.306666 0.402933 0.084618 -8.647877 -0.620681 3.635567 -0.205781 -0.021614 -6.548241 -6.432135 16.054779 0.000000 -0.000000 0.000000 0.181323 -8.360289 -0.785731 2.163672 0.122039 0.013095 -4.386415 23.406473 -15.583646 0.000000 0.000000 0.000000 2.223677 -0.478949 -0.648336 0.151819 -0.225355 0.441491 0.152808 -0.222536 0.442475 0.153803 -0.219725 0.443447 0.155207 -0.216847 0.444767 0.156209 -0.213982 0.445813 0.158191 -0.211127 0.446807 0.847106 0.778886 2.458096 3.906673 -5.729208 -77.000832 1.641748 -24.658699 0.776411 -0.012530 0.297853 7.684288 14.341275 24.796129 -38.570030 -0.157701 7.392329 0.017537 -0.130501 11.220109 -0.060957 3.804324 5.356012 -35.786636 1.573836 2.920556 -51.739319 0.407153 1.559451 -24.501677 2.128042 3.333418 -34.263901 -0.247028 -0.220661 -41.360855 -0.114149 -0.128946 -24.081463 -10.466109 14.187483 -30.321844 0.546875 3.668231 -43.671940 -0.106051 1.526407 -17.507229 -20.109484 19.820396 -15.654465 -0.491734 3.863301 -34.149212 -0.589201 2.715728 -24.201092 3.627823 0.368006 -1.999235 7.075235 16.908262 69.894547 -12.723689 21.318720 4.519946 -1.439528 -4.580880 -17.569914 7.113111 -26.509890 35.951996 -4.951403 -3.994622 -4.484748 0.123985 -9.971616 0.072754 1.973779 -1.338429 32.524529 0.191435 0.192349 40.528805 0.091957 0.068185 17.646931 1.193254 -1.276161 35.639786 0.048330 0.251372 33.800423 0.030165 0.181460 21.547251 -8.627622 -9.972983 32.971992 0.117111 -0.180183 35.475872 0.022284 -0.086431 16.512300 -14.354820 -22.522751 23.472542 -0.007695 0.206476 29.976913 -0.003132 0.152659 21.046207 2.302644 -0.230661 0.692436 2.302643 -0.230661 0.692454 8.047214 -1.754821 -6.012094 
17.048401 93.676697 162.190094 -2.706393 8.258457 0.404118 0.044830 -8.630634 -0.645498 3.679712 -0.208232 -0.021475 -6.558384 -6.400098 16.064129 0.000000 -0.000000 -0.000000 0.105747 -8.303719 -0.811648 2.258963 0.127397 0.012881 -4.419218 23.388313 -15.562881 0.000000 0.000000 0.000000 2.233740 -0.493051 -0.637931 0.151798 -0.234024 0.446654 0.152820 -0.231168 0.447683 0.153850 -0.228329 0.448719 0.155370 -0.225405 0.450076 0.156407 -0.222502 0.451176 0.158315 -0.219612 0.452216 0.848574 0.713746 2.330197 3.792660 -6.063898 -76.898293 1.528983 -24.602983 0.728206 -0.010113 0.277996 7.718256 14.339007 24.809748 -38.568195 -0.149894 7.372199 0.010157 -0.130505 11.178262 -0.061110 3.803781 5.385777 -35.778061 1.573299 2.920686 -51.734520 0.405185 1.554791 -24.434368 2.123353 3.320271 -34.316315 -0.246962 -0.220404 -41.381863 -0.114144 -0.128951 -24.079025 -10.473517 14.167294 -30.357544 0.546162 3.668064 -43.655537 -0.105830 1.527803 -17.506886 -20.117016 19.820015 -15.693416 -0.493213 3.855576 -34.085930 -0.589255 2.713166 -24.180286 3.648867 0.388020 -1.879838 6.994598 17.124592 69.758041 -12.691396 21.315506 4.506980 -1.434425 -4.574892 -17.544538 7.085629 -26.525076 35.941868 -4.957775 -3.956930 -4.487377 0.124010 -9.990591 0.072796 1.972158 -1.343937 32.522171 0.191257 0.192526 40.581730 0.091957 0.068185 17.646927 1.226650 -1.327146 35.553608 0.048227 0.251392 33.823792 0.030319 0.181434 21.498573 -8.636543 -9.944883 32.923515 0.117063 -0.180214 35.460533 0.022292 -0.086429 16.517447 -14.363609 -22.510443 23.449284 -0.007696 0.206476 29.977083 -0.003118 0.152659 21.041075 2.289371 -0.216175 0.679879 2.289381 -0.216174 0.679906 8.155577 -1.668181 -6.043945 
17.103228 93.670715 162.041992 -2.730097 8.208156 0.405383 0.005224 -8.609897 -0.672109 3.726659 -0.210786 -0.021323 -6.568936 -6.369491 16.074703 0.000000 -0.000000 0.000000 0.027087 -8.243879 -0.839590 2.359552 0.133061 0.012859 -4.452929 23.368191 -15.541684 0.000000 0.000000 0.000000 2.243517 -0.507242 -0.628644 0.151798 -0.242656 0.451816 0.152852 -0.239754 0.452891 0.153917 -0.236879 0.453982 0.155556 -0.233916 0.455394 0.156628 -0.230977 0.456539 0.158649 -0.228049 0.457625 0.846919 0.645923 2.210883 3.679227 -6.391123 -76.805595 1.415094 -24.549101 0.679620 -0.008346 0.262840 7.755274 14.336874 24.821859 -38.566204 -0.140710 7.351410 0.001439 -0.130512 11.134788 -0.061267 3.805743 5.414958 -35.776253 1.572755 2.920814 -51.729458 0.403159 1.550092 -24.366304 2.118685 3.306541 -34.373684 -0.246878 -0.220166 -41.398270 -0.114132 -0.128961 -24.073944 -10.481078 14.148281 -30.396599 0.545191 3.667446 -43.633724 -0.105837 1.528854 -17.502176 -20.124346 19.818001 -15.733077 -0.494788 3.847416 -34.019150 -0.589334 2.710150 -24.155733 3.666747 0.407756 -1.763133 6.921545 17.338135 69.626198 -12.661708 21.305975 4.493678 -1.430176 -4.571541 -17.518888 7.057797 -26.538303 35.930649 -4.964277 -3.919689 -4.490152 0.124035 -10.009715 0.072838 1.970714 -1.346914 32.523098 0.191090 0.192692 40.631504 0.091956 0.068187 17.647705 1.259982 -1.377694 35.473522 0.048132 0.251410 33.845501 0.030467 0.181409 21.451704 -8.644682 -9.918130 32.877838 0.117011 -0.180248 35.443932 0.022299 -0.086427 16.521837 -14.371397 -22.498644 23.425743 -0.007711 0.206475 29.981258 -0.003111 0.152659 21.038595 2.275386 -0.201751 0.667513 2.275404 -0.201749 0.667541 8.268250 -1.582357 -6.074090 
17.152128 93.664291 161.900635 -2.756902 8.165500 0.406308 -0.028646 -8.596543 -0.693279 3.775785 -0.213531 -0.021128 -6.582006 -6.339273 16.083742 0.000000 -0.000000 -0.000000 -0.032512 -8.202140 -0.861592 2.445979 0.137916 0.012648 -4.485454 23.360895 -15.521362 0.000000 0.000000 0.000000 2.249163 -0.520976 -0.623110 0.151741 -0.250716 0.456917 0.152829 -0.247777 0.458028 0.153927 -0.244883 0.459165 0.155687 -0.241883 0.460613 0.156795 -0.238908 0.461804 0.158748 -0.235952 0.462935 0.847124 0.576643 2.096131 3.590628 -6.718340 -76.715126 1.326067 -24.504436 0.641718 -0.005183 0.238098 7.779661 14.339155 24.834225 -38.566475 -0.130031 7.326958 -0.008662 -0.130518 11.091872 -0.061421 3.810701 5.445002 -35.777233 1.572513 2.920276 -51.730198 0.401076 1.545182 -24.295338 2.114090 3.292860 -34.431938 -0.246801 -0.219920 -41.416420 -0.114117 -0.128974 -24.067213 -10.486939 14.134518 -30.445314 0.543951 3.666725 -43.608799 -0.105841 1.530195 -17.493547 -20.128204 19.820374 -15.790249 -0.496290 3.839587 -33.955109 -0.589391 2.707475 -24.134041 3.679440 0.428391 -1.651226 6.831854 17.570618 69.502502 -12.614786 21.311520 4.476959 -1.425470 -4.570865 -17.476574 7.031272 -26.552742 35.921227 -4.969478 -3.880220 -4.491553 0.124054 -10.024842 0.072871 1.969851 -1.350267 32.523460 0.191004 0.192777 40.656910 0.091977 0.068158 17.630142 1.294434 -1.430728 35.386097 0.048078 0.251421 33.857937 0.030640 0.181380 21.397125 -8.651651 -9.890826 32.834209 0.116948 -0.180289 35.423901 0.022303 -0.086426 16.524546 -14.377138 -22.489115 23.402222 -0.007687 0.206476 29.974600 -0.003091 0.152660 21.030943 2.264645 -0.188648 0.657958 2.264662 -0.188646 0.657998 8.364979 -1.503145 -6.101940 
